<svg aria-hidden="true" style="position: absolute; width: 0; height: 0; overflow: hidden;" version="1.1" xmlns="http://www.w3.org/2000/svg" xmlns:xlink="http://www.w3.org/1999/xlink">
<defs>
<symbol id="heart" viewBox="0 0 35 32">
<path fill="#9b9b9b" style="fill: var(--color1, #9b9b9b)" d="M25.432 0c2.744 0 5.048 0.925 6.914 2.776s2.798 4.109 2.798 6.776c0 1.306-0.274 2.626-0.823 3.959s-1.152 2.517-1.811 3.551c-0.659 1.034-1.77 2.367-3.333 4s-2.881 2.952-3.951 3.959c-1.070 1.007-2.785 2.544-5.144 4.612l-2.552 2.286-2.551-2.204c-2.305-2.122-4.005-3.687-5.103-4.694s-2.428-2.327-3.992-3.959c-1.564-1.633-2.675-2.966-3.333-4s-1.248-2.218-1.77-3.551-0.782-2.653-0.782-3.959c0-2.667 0.933-4.925 2.798-6.776s4.143-2.776 6.831-2.776c3.182 0 5.816 1.224 7.901 3.673 2.085-2.449 4.719-3.673 7.901-3.673zM17.695 27.102c2.689-2.394 4.65-4.177 5.885-5.347s2.593-2.571 4.074-4.204c1.481-1.633 2.51-3.061 3.086-4.286s0.864-2.463 0.864-3.714c0-1.742-0.59-3.184-1.769-4.327s-2.648-1.714-4.403-1.714c-1.317 0-2.565 0.381-3.745 1.143s-2.017 1.742-2.51 2.939h-3.292c-0.439-1.197-1.248-2.177-2.428-2.939s-2.455-1.143-3.827-1.143c-1.756 0-3.21 0.571-4.362 1.714s-1.728 2.585-1.728 4.327c0 1.252 0.274 2.49 0.823 3.714s1.577 2.653 3.086 4.286c1.509 1.633 2.881 3.034 4.115 4.204s3.169 2.952 5.802 5.347l0.165 0.163 0.165-0.163z"></path>
</symbol>
<symbol id="arrow-empty" viewBox="0 0 37 32">
<path fill="none" stroke="#fff" style="stroke: var(--color2, #fff)" stroke-linejoin="round" stroke-linecap="round" stroke-miterlimit="4" stroke-width="4.5714" d="M33.633 16h-31.347"></path>
<path fill="none" stroke="#fff" style="stroke: var(--color2, #fff)" stroke-linejoin="round" stroke-linecap="round" stroke-miterlimit="4" stroke-width="4.5714" d="M16 29.714l-13.714-13.714 13.714-13.714"></path>
</symbol>
<symbol id="arrow" viewBox="0 0 37 32">
<path fill="none" stroke="#fff" style="stroke: var(--color2, #fff)" stroke-linejoin="round" stroke-linecap="round" stroke-miterlimit="4" stroke-width="4.5714" d="M2.286 16h31.347"></path>
<path fill="none" stroke="#fff" style="stroke: var(--color2, #fff)" stroke-linejoin="round" stroke-linecap="round" stroke-miterlimit="4" stroke-width="4.5714" d="M19.919 2.286l13.714 13.714-13.714 13.714"></path>
</symbol>
<symbol id="delete" viewBox="0 0 32 32">
<path fill="#fff" style="fill: var(--color2, #fff); stroke: var(--color3, #dbdbdb)" stroke="#dbdbdb" stroke-linejoin="miter" stroke-linecap="butt" stroke-miterlimit="4" stroke-width="1" d="M8 0.5h16c4.142 0 7.5 3.358 7.5 7.5v16c0 4.142-3.358 7.5-7.5 7.5h-16c-4.142 0-7.5-3.358-7.5-7.5v-16c0-4.142 3.358-7.5 7.5-7.5z"></path>
<path fill="#b5b5b5" style="fill: var(--color4, #b5b5b5)" d="M20.080 18.616l-2.449-2.449 2.449-2.449c0.944-0.944-0.52-2.409-1.464-1.464l-2.449 2.449-2.449-2.449c-0.944-0.944-2.408 0.52-1.464 1.464l2.449 2.449-2.449 2.449c-0.944 0.944 0.52 2.409 1.464 1.464l2.449-2.449 2.449 2.449c0.944 0.944 2.409-0.52 1.464-1.464z"></path>
</symbol>
<symbol id="heart-like" viewBox="0 0 32 32">
<path fill="#fef0f0" style="fill: var(--color5, #fef0f0)" d="M7 0h18c3.866 0 7 3.134 7 7v18c0 3.866-3.134 7-7 7h-18c-3.866 0-7-3.134-7-7v-18c0-3.866 3.134-7 7-7z"></path>
<path fill="#ff8585" style="fill: var(--color6, #ff8585)" d="M22.585 12.223c-0.223-0.513-0.546-0.979-0.948-1.369-0.403-0.392-0.878-0.704-1.4-0.918-0.541-0.223-1.121-0.337-1.707-0.336-0.822 0-1.623 0.223-2.32 0.645-0.167 0.101-0.325 0.212-0.475 0.332-0.15-0.121-0.308-0.232-0.475-0.332-0.697-0.422-1.498-0.645-2.32-0.645-0.592 0-1.165 0.112-1.707 0.336-0.523 0.215-0.995 0.524-1.4 0.918-0.403 0.39-0.726 0.856-0.948 1.369-0.232 0.534-0.35 1.101-0.35 1.685 0 0.551 0.113 1.125 0.338 1.708 0.188 0.488 0.458 0.994 0.803 1.505 0.547 0.809 1.298 1.652 2.232 2.507 1.547 1.417 3.079 2.396 3.144 2.436l0.395 0.251c0.175 0.111 0.4 0.111 0.575 0l0.395-0.251c0.065-0.041 1.595-1.019 3.144-2.436 0.933-0.855 1.685-1.699 2.232-2.507 0.345-0.511 0.617-1.017 0.803-1.505 0.225-0.584 0.338-1.158 0.338-1.709 0.002-0.584-0.117-1.151-0.348-1.685z"></path>
</symbol>
<symbol id="heart-unlike" viewBox="0 0 32 32">
<path fill="#fff" style="fill: var(--color2, #fff); stroke: var(--color7, #f8f8f8)" stroke="#f8f8f8" stroke-linejoin="miter" stroke-linecap="butt" stroke-miterlimit="4" stroke-width="1" d="M7 0.5h18c3.59 0 6.5 2.91 6.5 6.5v18c0 3.59-2.91 6.5-6.5 6.5h-18c-3.59 0-6.5-2.91-6.5-6.5v-18c0-3.59 2.91-6.5 6.5-6.5z"></path>
<path fill="none" stroke="#ececec" style="stroke: var(--color8, #ececec)" stroke-linejoin="miter" stroke-linecap="butt" stroke-miterlimit="4" stroke-width="1.4" d="M21.149 11.356l-0.001-0.001c-0.339-0.33-0.739-0.592-1.178-0.772l-0.001-0c-0.456-0.188-0.945-0.284-1.439-0.283h-0.002c-0.695 0-1.371 0.189-1.958 0.544v0c-0.14 0.085-0.273 0.178-0.399 0.279l-0.439 0.353-0.439-0.353c-0.126-0.101-0.258-0.194-0.399-0.279v-0c-0.587-0.355-1.263-0.544-1.958-0.544-0.502 0-0.984 0.095-1.44 0.283l-0.001 0c-0.441 0.181-0.837 0.441-1.178 0.772l-0.001 0.001c-0.338 0.327-0.607 0.716-0.793 1.145l11.623-1.146zM21.149 11.356c0.337 0.328 0.607 0.717 0.794 1.146 0.194 0.447 0.292 0.918 0.29 1.404v0.002c0 0.454-0.093 0.943-0.291 1.457l-0.001 0.002M21.149 11.356l0.792 4.011M12.38 19.113l0 0c0.749 0.686 1.497 1.269 2.067 1.686 0.284 0.208 0.523 0.373 0.694 0.488 0.085 0.058 0.153 0.103 0.201 0.134 0.051 0.033 0.074 0.048 0.073 0.047l0.011 0.007v0l0.307 0.195 0.307-0.195c0.051-0.032 1.542-0.985 3.047-2.362h-6.707zM12.38 19.113c-0.905-0.829-1.617-1.631-2.125-2.383M12.38 19.113l-2.125-2.383M21.941 15.367c-0.164 0.429-0.408 0.888-0.73 1.364M21.941 15.367l-0.73 1.364M10.255 16.73c-0.32-0.475-0.564-0.934-0.73-1.365l0.73 1.365zM21.211 16.73c-0.508 0.752-1.22 1.554-2.124 2.383l2.124-2.383zM9.233 13.908c0-0.488 0.098-0.96 0.292-1.407l-0.001 2.863c-0.198-0.514-0.291-1.002-0.291-1.456z"></path>
</symbol>
<symbol id="search" viewBox="0 0 32 32">
<path fill="none" stroke="#e4e4e4" style="stroke: var(--color9, #e4e4e4)" stroke-linejoin="miter" stroke-linecap="round" stroke-miterlimit="4" stroke-width="4" d="M30.5 30.5v0zM27.5 14.75c0 3.382-1.343 6.625-3.734 9.016s-5.634 3.734-9.016 3.734-6.625-1.343-9.016-3.734c-2.391-2.391-3.734-5.634-3.734-9.016s1.343-6.625 3.734-9.016c2.391-2.391 5.634-3.734 9.016-3.734s6.625 1.343 9.016 3.734c2.391 2.391 3.734 5.634 3.734 9.016v0z"></path>
</symbol>
<symbol id="Plus" viewBox="0 0 32 32">
<path fill="#d3d3d3" style="fill: var(--color10, #d3d3d3)" d="M28.441 13.683h-9.235v-9.235c0-3.561-5.523-3.561-5.523 0v9.235h-9.235c-3.56 0-3.56 5.522 0 5.522h9.235v9.235c0 3.561 5.523 3.561 5.523 0v-9.235h9.235c3.561 0 3.561-5.522 0-5.522z"></path>
</symbol>
<symbol id="basket" viewBox="0 0 20 20">
<path fill="none" stroke="#9b9b9b" style="stroke: var(--color1, #9b9b9b)" stroke-linejoin="round" stroke-linecap="round" stroke-miterlimit="4" stroke-width="2" d="M7.545 18.182c0.452 0 0.818-0.366 0.818-0.818s-0.366-0.818-0.818-0.818-0.818 0.366-0.818 0.818c0 0.452 0.366 0.818 0.818 0.818z"></path>
<path fill="none" stroke="#9b9b9b" style="stroke: var(--color1, #9b9b9b)" stroke-linejoin="round" stroke-linecap="round" stroke-miterlimit="4" stroke-width="2" d="M16.546 18.182c0.452 0 0.818-0.366 0.818-0.818s-0.366-0.818-0.818-0.818c-0.452 0-0.818 0.366-0.818 0.818s0.366 0.818 0.818 0.818z"></path>
<path fill="none" stroke="#9b9b9b" style="stroke: var(--color1, #9b9b9b)" stroke-linejoin="round" stroke-linecap="round" stroke-miterlimit="4" stroke-width="2" d="M1 1h3.273l2.193 10.956c0.075 0.377 0.28 0.715 0.579 0.956s0.673 0.369 1.057 0.361h7.953c0.384 0.007 0.758-0.121 1.058-0.361s0.504-0.579 0.579-0.956l1.309-6.865h-13.909"></path>
</symbol>
<symbol id="user" viewBox="0 0 20 20">
<path fill="#9b9b9b" style="fill: var(--color1, #9b9b9b)" d="M0 10c0-5.421 4.579-10 10-10s10 4.579 10 10c0 3.19-1.592 6.078-4 7.924v0.076h-0.102c-1.668 1.245-3.711 2-5.898 2s-4.23-0.755-5.898-2h-0.102v-0.076c-2.408-1.846-4-4.735-4-7.924zM7.123 15.236c-0.532 0.428-0.902 1.024-1.049 1.691 1.168 0.677 2.51 1.073 3.926 1.073s2.758-0.396 3.926-1.073c-0.148-0.667-0.518-1.263-1.050-1.691s-1.194-0.662-1.876-0.663h-2c-0.683 0.001-1.345 0.235-1.877 0.663zM13.768 13.412c0.82 0.546 1.461 1.321 1.842 2.229 1.467-1.459 2.39-3.465 2.39-5.641 0-4.337-3.663-8-8-8s-8 3.663-8 8c0 2.176 0.923 4.182 2.39 5.641 0.381-0.908 1.022-1.684 1.842-2.229s1.783-0.838 2.768-0.839h2c0.985 0.001 1.948 0.293 2.768 0.839zM6 8c0-2.28 1.72-4 4-4s4 1.72 4 4c0 2.28-1.72 4-4 4s-4-1.72-4-4zM8 8c0 1.178 0.822 2 2 2s2-0.822 2-2c0-1.178-0.822-2-2-2s-2 0.822-2 2z"></path>
</symbol>
<symbol id="search1" viewBox="0 0 32 32">
<path d="M31.008 27.231l-7.58-6.447c-0.784-0.705-1.622-1.029-2.299-0.998 1.789-2.096 2.87-4.815 2.87-7.787 0-6.627-5.373-12-12-12s-12 5.373-12 12 5.373 12 12 12c2.972 0 5.691-1.081 7.787-2.87-0.031 0.677 0.293 1.515 0.998 2.299l6.447 7.58c1.104 1.226 2.907 1.33 4.007 0.23s0.997-2.903-0.23-4.007zM12 20c-4.418 0-8-3.582-8-8s3.582-8 8-8 8 3.582 8 8-3.582 8-8 8z"></path>
</symbol>
</defs>
</svg>
